<svg version="1.1" xmlns="http://www.w3.org/2000/svg" xmlns:xlink="http://www.w3.org/1999/xlink" width="929.4072265625" height="590"><defs/><g><text fill="#eeeeee" stroke="none" font-family="Arial" font-size="24px" font-style="normal" font-weight="normal" text-decoration="none" x="0" y="0">UNREGISTERED</text><text fill="#eeeeee" stroke="none" font-family="Arial" font-size="24px" font-style="normal" font-weight="normal" text-decoration="none" x="0" y="30">UNREGISTERED</text><text fill="#eeeeee" stroke="none" font-family="Arial" font-size="24px" font-style="normal" font-weight="normal" text-decoration="none" x="0" y="60">UNREGISTERED</text><text fill="#eeeeee" stroke="none" font-family="Arial" font-size="24px" font-style="normal" font-weight="normal" text-decoration="none" x="0" y="90">UNREGISTERED</text><text fill="#eeeeee" stroke="none" font-family="Arial" font-size="24px" font-style="normal" font-weight="normal" text-decoration="none" x="0" y="120">UNREGISTERED</text><text fill="#eeeeee" stroke="none" font-family="Arial" font-size="24px" font-style="normal" font-weight="normal" text-decoration="none" x="0" y="150">UNREGISTERED</text><text fill="#eeeeee" stroke="none" font-family="Arial" font-size="24px" font-style="normal" font-weight="normal" text-decoration="none" x="0" y="180">UNREGISTERED</text><text fill="#eeeeee" stroke="none" font-family="Arial" font-size="24px" font-style="normal" font-weight="normal" text-decoration="none" x="0" y="210">UNREGISTERED</text><text fill="#eeeeee" stroke="none" font-family="Arial" font-size="24px" font-style="normal" font-weight="normal" text-decoration="none" x="0" y="240">UNREGISTERED</text><text fill="#eeeeee" stroke="none" font-family="Arial" font-size="24px" font-style="normal" font-weight="normal" text-decoration="none" x="0" y="270">UNREGISTERED</text><text fill="#eeeeee" stroke="none" font-family="Arial" font-size="24px" font-style="normal" font-weight="normal" text-decoration="none" x="0" y="300">UNREGISTERED</text><text fill="#eeeeee" stroke="none" font-family="Arial" font-size="24px" font-style="normal" font-weight="normal" text-decoration="none" x="0" y="330">UNREGISTERED</text><text fill="#eeeeee" stroke="none" font-family="Arial" font-size="24px" font-style="normal" font-weight="normal" text-decoration="none" x="0" y="360">UNREGISTERED</text><text fill="#eeeeee" stroke="none" font-family="Arial" font-size="24px" font-style="normal" font-weight="normal" text-decoration="none" x="0" y="390">UNREGISTERED</text><text fill="#eeeeee" stroke="none" font-family="Arial" font-size="24px" font-style="normal" font-weight="normal" text-decoration="none" x="0" y="420">UNREGISTERED</text><text fill="#eeeeee" stroke="none" font-family="Arial" font-size="24px" font-style="normal" font-weight="normal" text-decoration="none" x="0" y="450">UNREGISTERED</text><text fill="#eeeeee" stroke="none" font-family="Arial" font-size="24px" font-style="normal" font-weight="normal" text-decoration="none" x="0" y="480">UNREGISTERED</text><text fill="#eeeeee" stroke="none" font-family="Arial" font-size="24px" font-style="normal" font-weight="normal" text-decoration="none" x="0" y="510">UNREGISTERED</text><text fill="#eeeeee" stroke="none" font-family="Arial" font-size="24px" font-style="normal" font-weight="normal" text-decoration="none" x="0" y="540">UNREGISTERED</text><text fill="#eeeeee" stroke="none" font-family="Arial" font-size="24px" font-style="normal" font-weight="normal" text-decoration="none" x="0" y="570">UNREGISTERED</text><text fill="#eeeeee" stroke="none" font-family="Arial" font-size="24px" font-style="normal" font-weight="normal" text-decoration="none" x="200" y="0">UNREGISTERED</text><text fill="#eeeeee" stroke="none" font-family="Arial" font-size="24px" font-style="normal" font-weight="normal" text-decoration="none" x="200" y="30">UNREGISTERED</text><text fill="#eeeeee" stroke="none" font-family="Arial" font-size="24px" font-style="normal" font-weight="normal" text-decoration="none" x="200" y="60">UNREGISTERED</text><text fill="#eeeeee" stroke="none" font-family="Arial" font-size="24px" font-style="normal" font-weight="normal" text-decoration="none" x="200" y="90">UNREGISTERED</text><text fill="#eeeeee" stroke="none" font-family="Arial" font-size="24px" font-style="normal" font-weight="normal" text-decoration="none" x="200" y="120">UNREGISTERED</text><text fill="#eeeeee" stroke="none" font-family="Arial" font-size="24px" font-style="normal" font-weight="normal" text-decoration="none" x="200" y="150">UNREGISTERED</text><text fill="#eeeeee" stroke="none" font-family="Arial" font-size="24px" font-style="normal" font-weight="normal" text-decoration="none" x="200" y="180">UNREGISTERED</text><text fill="#eeeeee" stroke="none" font-family="Arial" font-size="24px" font-style="normal" font-weight="normal" text-decoration="none" x="200" y="210">UNREGISTERED</text><text fill="#eeeeee" stroke="none" font-family="Arial" font-size="24px" font-style="normal" font-weight="normal" text-decoration="none" x="200" y="240">UNREGISTERED</text><text fill="#eeeeee" stroke="none" font-family="Arial" font-size="24px" font-style="normal" font-weight="normal" text-decoration="none" x="200" y="270">UNREGISTERED</text><text fill="#eeeeee" stroke="none" font-family="Arial" font-size="24px" font-style="normal" font-weight="normal" text-decoration="none" x="200" y="300">UNREGISTERED</text><text fill="#eeeeee" stroke="none" font-family="Arial" font-size="24px" font-style="normal" font-weight="normal" text-decoration="none" x="200" y="330">UNREGISTERED</text><text fill="#eeeeee" stroke="none" font-family="Arial" font-size="24px" font-style="normal" font-weight="normal" text-decoration="none" x="200" y="360">UNREGISTERED</text><text fill="#eeeeee" stroke="none" font-family="Arial" font-size="24px" font-style="normal" font-weight="normal" text-decoration="none" x="200" y="390">UNREGISTERED</text><text fill="#eeeeee" stroke="none" font-family="Arial" font-size="24px" font-style="normal" font-weight="normal" text-decoration="none" x="200" y="420">UNREGISTERED</text><text fill="#eeeeee" stroke="none" font-family="Arial" font-size="24px" font-style="normal" font-weight="normal" text-decoration="none" x="200" y="450">UNREGISTERED</text><text fill="#eeeeee" stroke="none" font-family="Arial" font-size="24px" font-style="normal" font-weight="normal" text-decoration="none" x="200" y="480">UNREGISTERED</text><text fill="#eeeeee" stroke="none" font-family="Arial" font-size="24px" font-style="normal" font-weight="normal" text-decoration="none" x="200" y="510">UNREGISTERED</text><text fill="#eeeeee" stroke="none" font-family="Arial" font-size="24px" font-style="normal" font-weight="normal" text-decoration="none" x="200" y="540">UNREGISTERED</text><text fill="#eeeeee" stroke="none" font-family="Arial" font-size="24px" font-style="normal" font-weight="normal" text-decoration="none" x="200" y="570">UNREGISTERED</text><text fill="#eeeeee" stroke="none" font-family="Arial" font-size="24px" font-style="normal" font-weight="normal" text-decoration="none" x="400" y="0">UNREGISTERED</text><text fill="#eeeeee" stroke="none" font-family="Arial" font-size="24px" font-style="normal" font-weight="normal" text-decoration="none" x="400" y="30">UNREGISTERED</text><text fill="#eeeeee" stroke="none" font-family="Arial" font-size="24px" font-style="normal" font-weight="normal" text-decoration="none" x="400" y="60">UNREGISTERED</text><text fill="#eeeeee" stroke="none" font-family="Arial" font-size="24px" font-style="normal" font-weight="normal" text-decoration="none" x="400" y="90">UNREGISTERED</text><text fill="#eeeeee" stroke="none" font-family="Arial" font-size="24px" font-style="normal" font-weight="normal" text-decoration="none" x="400" y="120">UNREGISTERED</text><text fill="#eeeeee" stroke="none" font-family="Arial" font-size="24px" font-style="normal" font-weight="normal" text-decoration="none" x="400" y="150">UNREGISTERED</text><text fill="#eeeeee" stroke="none" font-family="Arial" font-size="24px" font-style="normal" font-weight="normal" text-decoration="none" x="400" y="180">UNREGISTERED</text><text fill="#eeeeee" stroke="none" font-family="Arial" font-size="24px" font-style="normal" font-weight="normal" text-decoration="none" x="400" y="210">UNREGISTERED</text><text fill="#eeeeee" stroke="none" font-family="Arial" font-size="24px" font-style="normal" font-weight="normal" text-decoration="none" x="400" y="240">UNREGISTERED</text><text fill="#eeeeee" stroke="none" font-family="Arial" font-size="24px" font-style="normal" font-weight="normal" text-decoration="none" x="400" y="270">UNREGISTERED</text><text fill="#eeeeee" stroke="none" font-family="Arial" font-size="24px" font-style="normal" font-weight="normal" text-decoration="none" x="400" y="300">UNREGISTERED</text><text fill="#eeeeee" stroke="none" font-family="Arial" font-size="24px" font-style="normal" font-weight="normal" text-decoration="none" x="400" y="330">UNREGISTERED</text><text fill="#eeeeee" stroke="none" font-family="Arial" font-size="24px" font-style="normal" font-weight="normal" text-decoration="none" x="400" y="360">UNREGISTERED</text><text fill="#eeeeee" stroke="none" font-family="Arial" font-size="24px" font-style="normal" font-weight="normal" text-decoration="none" x="400" y="390">UNREGISTERED</text><text fill="#eeeeee" stroke="none" font-family="Arial" font-size="24px" font-style="normal" font-weight="normal" text-decoration="none" x="400" y="420">UNREGISTERED</text><text fill="#eeeeee" stroke="none" font-family="Arial" font-size="24px" font-style="normal" font-weight="normal" text-decoration="none" x="400" y="450">UNREGISTERED</text><text fill="#eeeeee" stroke="none" font-family="Arial" font-size="24px" font-style="normal" font-weight="normal" text-decoration="none" x="400" y="480">UNREGISTERED</text><text fill="#eeeeee" stroke="none" font-family="Arial" font-size="24px" font-style="normal" font-weight="normal" text-decoration="none" x="400" y="510">UNREGISTERED</text><text fill="#eeeeee" stroke="none" font-family="Arial" font-size="24px" font-style="normal" font-weight="normal" text-decoration="none" x="400" y="540">UNREGISTERED</text><text fill="#eeeeee" stroke="none" font-family="Arial" font-size="24px" font-style="normal" font-weight="normal" text-decoration="none" x="400" y="570">UNREGISTERED</text><text fill="#eeeeee" stroke="none" font-family="Arial" font-size="24px" font-style="normal" font-weight="normal" text-decoration="none" x="600" y="0">UNREGISTERED</text><text fill="#eeeeee" stroke="none" font-family="Arial" font-size="24px" font-style="normal" font-weight="normal" text-decoration="none" x="600" y="30">UNREGISTERED</text><text fill="#eeeeee" stroke="none" font-family="Arial" font-size="24px" font-style="normal" font-weight="normal" text-decoration="none" x="600" y="60">UNREGISTERED</text><text fill="#eeeeee" stroke="none" font-family="Arial" font-size="24px" font-style="normal" font-weight="normal" text-decoration="none" x="600" y="90">UNREGISTERED</text><text fill="#eeeeee" stroke="none" font-family="Arial" font-size="24px" font-style="normal" font-weight="normal" text-decoration="none" x="600" y="120">UNREGISTERED</text><text fill="#eeeeee" stroke="none" font-family="Arial" font-size="24px" font-style="normal" font-weight="normal" text-decoration="none" x="600" y="150">UNREGISTERED</text><text fill="#eeeeee" stroke="none" font-family="Arial" font-size="24px" font-style="normal" font-weight="normal" text-decoration="none" x="600" y="180">UNREGISTERED</text><text fill="#eeeeee" stroke="none" font-family="Arial" font-size="24px" font-style="normal" font-weight="normal" text-decoration="none" x="600" y="210">UNREGISTERED</text><text fill="#eeeeee" stroke="none" font-family="Arial" font-size="24px" font-style="normal" font-weight="normal" text-decoration="none" x="600" y="240">UNREGISTERED</text><text fill="#eeeeee" stroke="none" font-family="Arial" font-size="24px" font-style="normal" font-weight="normal" text-decoration="none" x="600" y="270">UNREGISTERED</text><text fill="#eeeeee" stroke="none" font-family="Arial" font-size="24px" font-style="normal" font-weight="normal" text-decoration="none" x="600" y="300">UNREGISTERED</text><text fill="#eeeeee" stroke="none" font-family="Arial" font-size="24px" font-style="normal" font-weight="normal" text-decoration="none" x="600" y="330">UNREGISTERED</text><text fill="#eeeeee" stroke="none" font-family="Arial" font-size="24px" font-style="normal" font-weight="normal" text-decoration="none" x="600" y="360">UNREGISTERED</text><text fill="#eeeeee" stroke="none" font-family="Arial" font-size="24px" font-style="normal" font-weight="normal" text-decoration="none" x="600" y="390">UNREGISTERED</text><text fill="#eeeeee" stroke="none" font-family="Arial" font-size="24px" font-style="normal" font-weight="normal" text-decoration="none" x="600" y="420">UNREGISTERED</text><text fill="#eeeeee" stroke="none" font-family="Arial" font-size="24px" font-style="normal" font-weight="normal" text-decoration="none" x="600" y="450">UNREGISTERED</text><text fill="#eeeeee" stroke="none" font-family="Arial" font-size="24px" font-style="normal" font-weight="normal" text-decoration="none" x="600" y="480">UNREGISTERED</text><text fill="#eeeeee" stroke="none" font-family="Arial" font-size="24px" font-style="normal" font-weight="normal" text-decoration="none" x="600" y="510">UNREGISTERED</text><text fill="#eeeeee" stroke="none" font-family="Arial" font-size="24px" font-style="normal" font-weight="normal" text-decoration="none" x="600" y="540">UNREGISTERED</text><text fill="#eeeeee" stroke="none" font-family="Arial" font-size="24px" font-style="normal" font-weight="normal" text-decoration="none" x="600" y="570">UNREGISTERED</text><text fill="#eeeeee" stroke="none" font-family="Arial" font-size="24px" font-style="normal" font-weight="normal" text-decoration="none" x="800" y="0">UNREGISTERED</text><text fill="#eeeeee" stroke="none" font-family="Arial" font-size="24px" font-style="normal" font-weight="normal" text-decoration="none" x="800" y="30">UNREGISTERED</text><text fill="#eeeeee" stroke="none" font-family="Arial" font-size="24px" font-style="normal" font-weight="normal" text-decoration="none" x="800" y="60">UNREGISTERED</text><text fill="#eeeeee" stroke="none" font-family="Arial" font-size="24px" font-style="normal" font-weight="normal" text-decoration="none" x="800" y="90">UNREGISTERED</text><text fill="#eeeeee" stroke="none" font-family="Arial" font-size="24px" font-style="normal" font-weight="normal" text-decoration="none" x="800" y="120">UNREGISTERED</text><text fill="#eeeeee" stroke="none" font-family="Arial" font-size="24px" font-style="normal" font-weight="normal" text-decoration="none" x="800" y="150">UNREGISTERED</text><text fill="#eeeeee" stroke="none" font-family="Arial" font-size="24px" font-style="normal" font-weight="normal" text-decoration="none" x="800" y="180">UNREGISTERED</text><text fill="#eeeeee" stroke="none" font-family="Arial" font-size="24px" font-style="normal" font-weight="normal" text-decoration="none" x="800" y="210">UNREGISTERED</text><text fill="#eeeeee" stroke="none" font-family="Arial" font-size="24px" font-style="normal" font-weight="normal" text-decoration="none" x="800" y="240">UNREGISTERED</text><text fill="#eeeeee" stroke="none" font-family="Arial" font-size="24px" font-style="normal" font-weight="normal" text-decoration="none" x="800" y="270">UNREGISTERED</text><text fill="#eeeeee" stroke="none" font-family="Arial" font-size="24px" font-style="normal" font-weight="normal" text-decoration="none" x="800" y="300">UNREGISTERED</text><text fill="#eeeeee" stroke="none" font-family="Arial" font-size="24px" font-style="normal" font-weight="normal" text-decoration="none" x="800" y="330">UNREGISTERED</text><text fill="#eeeeee" stroke="none" font-family="Arial" font-size="24px" font-style="normal" font-weight="normal" text-decoration="none" x="800" y="360">UNREGISTERED</text><text fill="#eeeeee" stroke="none" font-family="Arial" font-size="24px" font-style="normal" font-weight="normal" text-decoration="none" x="800" y="390">UNREGISTERED</text><text fill="#eeeeee" stroke="none" font-family="Arial" font-size="24px" font-style="normal" font-weight="normal" text-decoration="none" x="800" y="420">UNREGISTERED</text><text fill="#eeeeee" stroke="none" font-family="Arial" font-size="24px" font-style="normal" font-weight="normal" text-decoration="none" x="800" y="450">UNREGISTERED</text><text fill="#eeeeee" stroke="none" font-family="Arial" font-size="24px" font-style="normal" font-weight="normal" text-decoration="none" x="800" y="480">UNREGISTERED</text><text fill="#eeeeee" stroke="none" font-family="Arial" font-size="24px" font-style="normal" font-weight="normal" text-decoration="none" x="800" y="510">UNREGISTERED</text><text fill="#eeeeee" stroke="none" font-family="Arial" font-size="24px" font-style="normal" font-weight="normal" text-decoration="none" x="800" y="540">UNREGISTERED</text><text fill="#eeeeee" stroke="none" font-family="Arial" font-size="24px" font-style="normal" font-weight="normal" text-decoration="none" x="800" y="570">UNREGISTERED</text><g transform="translate(-62,-6) scale(1,1)"><rect fill="#ffffff" stroke="none" x="72" y="16" width="592" height="88"/></g><g transform="translate(-62,-6) scale(1,1)"><path fill="none" stroke="#000000" d="M 72 16 L 664 16 L 664 104 L 72 104 L 72 16 Z Z" stroke-miterlimit="10"/></g><g transform="translate(-62,-6) scale(1,1)"><g><path fill="none" stroke="none"/><text fill="#000000" stroke="none" font-family="Arial" font-size="36px" font-style="normal" font-weight="normal" text-decoration="none" x="117" y="89"> Cadastro funcionário - Lucas</text></g></g><g transform="translate(-62,-6) scale(1,1)"><path fill="#ffffff" stroke="none" d="M 346.0167272727273 223.29 C 346.0167272727273 215.397850208 352.2772510184727 209 360 209 C 367.7227489815273 209 373.9832727272727 215.397850208 373.9832727272727 223.29 C 373.9832727272727 231.182149792 367.7227489815273 237.57999999999998 360 237.57999999999998 C 352.2772510184727 237.57999999999998 346.0167272727273 231.182149792 346.0167272727273 223.29 Z"/></g><g transform="translate(-62,-6) scale(1,1)"><path fill="none" stroke="#000000" d="M 346.0167272727273 223.29 C 346.0167272727273 215.397850208 352.2772510184727 209 360 209 C 367.7227489815273 209 373.9832727272727 215.397850208 373.9832727272727 223.29 C 373.9832727272727 231.182149792 367.7227489815273 237.57999999999998 360 237.57999999999998 C 352.2772510184727 237.57999999999998 346.0167272727273 231.182149792 346.0167272727273 223.29 Z" stroke-miterlimit="10"/></g><g transform="translate(-62,-6) scale(1,1)"><path fill="none" stroke="#000000" d="M 360 237.57999999999998 L 360 265.42" stroke-miterlimit="10"/></g><g transform="translate(-62,-6) scale(1,1)"><path fill="none" stroke="#000000" d="M 345.19418181818185 248.02 L 374.80581818181815 248.02" stroke-miterlimit="10"/></g><g transform="translate(-62,-6) scale(1,1)"><path fill="none" stroke="#000000" d="M 360 265.42 L 339.43636363636364 294" stroke-miterlimit="10"/></g><g transform="translate(-62,-6) scale(1,1)"><path fill="none" stroke="#000000" d="M 360 265.42 L 380.56363636363636 294" stroke-miterlimit="10"/></g><g transform="translate(-62,-6) scale(1,1)"><g><path fill="none" stroke="none"/><text fill="#000000" stroke="none" font-family="Arial" font-size="13px" font-style="normal" font-weight="bold" text-decoration="none" x="336.513671875" y="314.5">Gerente</text></g></g><g transform="translate(-62,-6) scale(1,1)"><path fill="#ffffff" stroke="none" d="M 911.4345223721591 320.65 C 911.4345223721591 312.00674288 918.2707264623409 305 926.70361328125 305 C 935.1365001001591 305 941.9727041903409 312.00674288 941.9727041903409 320.65 C 941.9727041903409 329.29325711999996 935.1365001001591 336.3 926.70361328125 336.3 C 918.2707264623409 336.3 911.4345223721591 329.29325711999996 911.4345223721591 320.65 Z"/></g><g transform="translate(-62,-6) scale(1,1)"><path fill="none" stroke="#000000" d="M 911.4345223721591 320.65 C 911.4345223721591 312.00674288 918.2707264623409 305 926.70361328125 305 C 935.1365001001591 305 941.9727041903409 312.00674288 941.9727041903409 320.65 C 941.9727041903409 329.29325711999996 935.1365001001591 336.3 926.70361328125 336.3 C 918.2707264623409 336.3 911.4345223721591 329.29325711999996 911.4345223721591 320.65 Z" stroke-miterlimit="10"/></g><g transform="translate(-62,-6) scale(1,1)"><path fill="none" stroke="#000000" d="M 926.70361328125 336.3 L 926.70361328125 366.7" stroke-miterlimit="10"/></g><g transform="translate(-62,-6) scale(1,1)"><path fill="none" stroke="#000000" d="M 910.5363405539772 347.7 L 942.8708860085228 347.7" stroke-miterlimit="10"/></g><g transform="translate(-62,-6) scale(1,1)"><path fill="none" stroke="#000000" d="M 926.70361328125 366.7 L 904.2490678267045 398" stroke-miterlimit="10"/></g><g transform="translate(-62,-6) scale(1,1)"><path fill="none" stroke="#000000" d="M 926.70361328125 366.7 L 949.1581587357955 398" stroke-miterlimit="10"/></g><g transform="translate(-62,-6) scale(1,1)"><g><path fill="none" stroke="none"/><text fill="#000000" stroke="none" font-family="Arial" font-size="13px" font-style="normal" font-weight="bold" text-decoration="none" x="879.721435546875" y="418.5">Banco de dados</text></g></g><g transform="translate(-62,-6) scale(1,1)"><path fill="#C0C0C0" stroke="none" d="M 799 224 C 799 214.6111584 826.9822 207 861.5 207 C 896.0178 207 924 214.6111584 924 224 C 924 233.3888416 896.0178 241 861.5 241 C 826.9822 241 799 233.3888416 799 224 Z" opacity="0.2"/></g><g transform="translate(-62,-6) scale(1,1)"><path fill="#ffffff" stroke="none" d="M 792 217 C 792 207.6111584 819.9822 200 854.5 200 C 889.0178 200 917 207.6111584 917 217 C 917 226.3888416 889.0178 234 854.5 234 C 819.9822 234 792 226.3888416 792 217 Z"/></g><g transform="translate(-62,-6) scale(1,1)"><path fill="none" stroke="#000000" d="M 792 217 C 792 207.6111584 819.9822 200 854.5 200 C 889.0178 200 917 207.6111584 917 217 C 917 226.3888416 889.0178 234 854.5 234 C 819.9822 234 792 226.3888416 792 217 Z" stroke-miterlimit="10"/></g><g transform="translate(-62,-6) scale(1,1)"><g><path fill="none" stroke="none"/><text fill="#000000" stroke="none" font-family="Arial" font-size="13px" font-style="normal" font-weight="bold" text-decoration="none" x="817.39794921875" y="224">Valida dados</text></g></g><g transform="translate(-62,-6) scale(1,1)"><path fill="#C0C0C0" stroke="none" d="M 527 200 C 527 190.6111584 560.57864 183 602 183 C 643.42136 183 677 190.6111584 677 200 C 677 209.3888416 643.42136 217 602 217 C 560.57864 217 527 209.3888416 527 200 Z" opacity="0.2"/></g><g transform="translate(-62,-6) scale(1,1)"><path fill="#ffffff" stroke="none" d="M 520 193 C 520 183.6111584 553.57864 176 595 176 C 636.42136 176 670 183.6111584 670 193 C 670 202.3888416 636.42136 210 595 210 C 553.57864 210 520 202.3888416 520 193 Z"/></g><g transform="translate(-62,-6) scale(1,1)"><path fill="none" stroke="#000000" d="M 520 193 C 520 183.6111584 553.57864 176 595 176 C 636.42136 176 670 183.6111584 670 193 C 670 202.3888416 636.42136 210 595 210 C 553.57864 210 520 202.3888416 520 193 Z" stroke-miterlimit="10"/></g><g transform="translate(-62,-6) scale(1,1)"><g><path fill="none" stroke="none"/><text fill="#000000" stroke="none" font-family="Arial" font-size="13px" font-style="normal" font-weight="bold" text-decoration="none" x="549.46826171875" y="200">Submete dados</text></g></g><g transform="translate(-62,-6) scale(1,1)"><path fill="#C0C0C0" stroke="none" d="M 671 432 C 671 422.6111584 703.6832096 415 744 415 C 784.3167904 415 817 422.6111584 817 432 C 817 441.3888416 784.3167904 449 744 449 C 703.6832096 449 671 441.3888416 671 432 Z" opacity="0.2"/></g><g transform="translate(-62,-6) scale(1,1)"><path fill="#ffffff" stroke="none" d="M 664 425 C 664 415.6111584 696.6832096 408 737 408 C 777.3167904 408 810 415.6111584 810 425 C 810 434.3888416 777.3167904 442 737 442 C 696.6832096 442 664 434.3888416 664 425 Z"/></g><g transform="translate(-62,-6) scale(1,1)"><path fill="none" stroke="#000000" d="M 664 425 C 664 415.6111584 696.6832096 408 737 408 C 777.3167904 408 810 415.6111584 810 425 C 810 434.3888416 777.3167904 442 737 442 C 696.6832096 442 664 434.3888416 664 425 Z" stroke-miterlimit="10"/></g><g transform="translate(-62,-6) scale(1,1)"><g><path fill="none" stroke="none"/><text fill="#000000" stroke="none" font-family="Arial" font-size="13px" font-style="normal" font-weight="bold" text-decoration="none" x="692.5537109375" y="432">Salva os dados</text></g></g><g transform="translate(-62,-6) scale(1,1)"><path fill="none" stroke="#000000" d="M 393 254 L 535 211" stroke-miterlimit="10"/></g><g transform="translate(-62,-6) scale(1,1)"><path fill="#C0C0C0" stroke="none" d="M 471 576 C 471 566.6111584 544.6491504 559 635.5 559 C 726.3508496 559 800 566.6111584 800 576 C 800 585.3888416 726.3508496 593 635.5 593 C 544.6491504 593 471 585.3888416 471 576 Z" opacity="0.2"/></g><g transform="translate(-62,-6) scale(1,1)"><path fill="#ffffff" stroke="none" d="M 464 569 C 464 559.6111584 537.6491504 552 628.5 552 C 719.3508496 552 793 559.6111584 793 569 C 793 578.3888416 719.3508496 586 628.5 586 C 537.6491504 586 464 578.3888416 464 569 Z"/></g><g transform="translate(-62,-6) scale(1,1)"><path fill="none" stroke="#000000" d="M 464 569 C 464 559.6111584 537.6491504 552 628.5 552 C 719.3508496 552 793 559.6111584 793 569 C 793 578.3888416 719.3508496 586 628.5 586 C 537.6491504 586 464 578.3888416 464 569 Z" stroke-miterlimit="10"/></g><g transform="translate(-62,-6) scale(1,1)"><g><path fill="none" stroke="none"/><text fill="#000000" stroke="none" font-family="Arial" font-size="13px" font-style="normal" font-weight="bold" text-decoration="none" x="524.801513671875" y="576">Concede permissões de funcionário</text></g></g><g transform="translate(-62,-6) scale(1,1)"><path fill="none" stroke="#000000" d="M 671 200 L 791 211" stroke-miterlimit="10" stroke-dasharray="3"/></g><g transform="translate(-62,-6) scale(1,1)"><path fill="none" stroke="#000000" d="M 780.4954938731831 214.2642535182898 L 791 211 L 781.2640166864174 205.88036828300693" stroke-miterlimit="10"/></g><g transform="translate(-62,-6) scale(1,1)"><g><path fill="none" stroke="none"/><text fill="#000000" stroke="none" font-family="Arial" font-size="13px" font-style="normal" font-weight="normal" text-decoration="none" x="705.5" y="181.5">«include»</text></g></g><g transform="translate(-62,-6) scale(1,1)"><path fill="#C0C0C0" stroke="none" d="M 399 144 C 399 134.6111584 436.6080768 127 483 127 C 529.3919232 127 567 134.6111584 567 144 C 567 153.3888416 529.3919232 161 483 161 C 436.6080768 161 399 153.3888416 399 144 Z" opacity="0.2"/></g><g transform="translate(-62,-6) scale(1,1)"><path fill="#ffffff" stroke="none" d="M 392 137 C 392 127.6111584 429.6080768 120 476 120 C 522.3919232 120 560 127.6111584 560 137 C 560 146.3888416 522.3919232 154 476 154 C 429.6080768 154 392 146.3888416 392 137 Z"/></g><g transform="translate(-62,-6) scale(1,1)"><path fill="none" stroke="#000000" d="M 392 137 C 392 127.6111584 429.6080768 120 476 120 C 522.3919232 120 560 127.6111584 560 137 C 560 146.3888416 522.3919232 154 476 154 C 429.6080768 154 392 146.3888416 392 137 Z" stroke-miterlimit="10"/></g><g transform="translate(-62,-6) scale(1,1)"><g><path fill="none" stroke="none"/><text fill="#000000" stroke="none" font-family="Arial" font-size="13px" font-style="normal" font-weight="bold" text-decoration="none" x="438.418701171875" y="144">Insere dados</text></g></g><g transform="translate(-62,-6) scale(1,1)"><path fill="none" stroke="#000000" d="M 393 228 L 460 155" stroke-miterlimit="10"/></g><g transform="translate(-62,-6) scale(1,1)"><path fill="#C0C0C0" stroke="none" d="M 551 296 C 551 286.6111584 589.5035072000001 279 637 279 C 684.4964927999999 279 723 286.6111584 723 296 C 723 305.3888416 684.4964927999999 313 637 313 C 589.5035072000001 313 551 305.3888416 551 296 Z" opacity="0.2"/></g><g transform="translate(-62,-6) scale(1,1)"><path fill="#ffffff" stroke="none" d="M 544 289 C 544 279.6111584 582.5035072000001 272 630 272 C 677.4964927999999 272 716 279.6111584 716 289 C 716 298.3888416 677.4964927999999 306 630 306 C 582.5035072000001 306 544 298.3888416 544 289 Z"/></g><g transform="translate(-62,-6) scale(1,1)"><path fill="none" stroke="#000000" d="M 544 289 C 544 279.6111584 582.5035072000001 272 630 272 C 677.4964927999999 272 716 279.6111584 716 289 C 716 298.3888416 677.4964927999999 306 630 306 C 582.5035072000001 306 544 298.3888416 544 289 Z" stroke-miterlimit="10"/></g><g transform="translate(-62,-6) scale(1,1)"><g><path fill="none" stroke="none"/><text fill="#000000" stroke="none" font-family="Arial" font-size="13px" font-style="normal" font-weight="bold" text-decoration="none" x="577.974609375" y="296">Verifica existência</text></g></g><g transform="translate(-62,-6) scale(1,1)"><path fill="none" stroke="#000000" d="M 602 211 L 623 271" stroke-miterlimit="10" stroke-dasharray="3"/></g><g transform="translate(-62,-6) scale(1,1)"><path fill="none" stroke="#000000" d="M 615.6695675341234 262.79849039120097 L 623 271 L 623.6159445546971 260.0172584340002" stroke-miterlimit="10"/></g><g transform="translate(-62,-6) scale(1,1)"><g><path fill="none" stroke="none"/><text fill="#000000" stroke="none" font-family="Arial" font-size="13px" font-style="normal" font-weight="normal" text-decoration="none" x="612.5" y="236.5">«include»</text></g></g><g transform="translate(-62,-6) scale(1,1)"><path fill="none" stroke="#000000" d="M 701 307 L 871 350" stroke-miterlimit="10"/></g><g transform="translate(-62,-6) scale(1,1)"><path fill="#C0C0C0" stroke="none" d="M 447 400 C 447 390.6111584 485.9512224 383 534 383 C 582.0487776 383 621 390.6111584 621 400 C 621 409.3888416 582.0487776 417 534 417 C 485.9512224 417 447 409.3888416 447 400 Z" opacity="0.2"/></g><g transform="translate(-62,-6) scale(1,1)"><path fill="#ffffff" stroke="none" d="M 440 393 C 440 383.6111584 478.9512224 376 527 376 C 575.0487776 376 614 383.6111584 614 393 C 614 402.3888416 575.0487776 410 527 410 C 478.9512224 410 440 402.3888416 440 393 Z"/></g><g transform="translate(-62,-6) scale(1,1)"><path fill="none" stroke="#000000" d="M 440 393 C 440 383.6111584 478.9512224 376 527 376 C 575.0487776 376 614 383.6111584 614 393 C 614 402.3888416 575.0487776 410 527 410 C 478.9512224 410 440 402.3888416 440 393 Z" stroke-miterlimit="10"/></g><g transform="translate(-62,-6) scale(1,1)"><g><path fill="none" stroke="none"/><text fill="#000000" stroke="none" font-family="Arial" font-size="13px" font-style="normal" font-weight="bold" text-decoration="none" x="474.254150390625" y="400">Informa existência</text></g></g><g transform="translate(-62,-6) scale(1,1)"><path fill="none" stroke="#000000" d="M 504 375 L 393 289" stroke-miterlimit="10"/></g><g transform="translate(-62,-6) scale(1,1)"><path fill="none" stroke="#000000" d="M 403.6117702137484 291.8966071412261 L 393 289 L 398.45544412654056 298.5518652305293" stroke-miterlimit="10"/></g><g transform="translate(-62,-6) scale(1,1)"><path fill="none" stroke="#000000" d="M 612 307 L 545 375" stroke-miterlimit="10"/></g><g transform="translate(-62,-6) scale(1,1)"><g><path fill="none" stroke="none"/><text fill="#000000" stroke="none" font-family="Arial" font-size="13px" font-style="normal" font-weight="normal" text-decoration="none" x="548.5" y="357.5">+Caso já haja</text></g></g><g transform="translate(-62,-6) scale(1,1)"><path fill="none" stroke="#000000" d="M 644 307 L 723 407" stroke-miterlimit="10"/></g><g transform="translate(-62,-6) scale(1,1)"><g><path fill="none" stroke="none"/><text fill="#000000" stroke="none" font-family="Arial" font-size="13px" font-style="normal" font-weight="normal" text-decoration="none" x="648.5" y="353.5">+Caso não haja</text></g></g><g transform="translate(-62,-6) scale(1,1)"><path fill="none" stroke="#000000" d="M 723 443 L 642 551" stroke-miterlimit="10" stroke-dasharray="3"/></g><g transform="translate(-62,-6) scale(1,1)"><path fill="none" stroke="#000000" d="M 644.7299907097618 540.3441494602911 L 642 551 L 651.4652191193873 545.3955707675103" stroke-miterlimit="10"/></g><g transform="translate(-62,-6) scale(1,1)"><g><path fill="none" stroke="none"/><text fill="#000000" stroke="none" font-family="Arial" font-size="13px" font-style="normal" font-weight="normal" text-decoration="none" x="674.5" y="495.5">«include»</text></g></g><g transform="translate(-62,-6) scale(1,1)"><path fill="none" stroke="#000000" d="M 793 407 L 871 382" stroke-miterlimit="10"/></g><g transform="translate(-62,-6) scale(1,1)"><path fill="none" stroke="#000000" d="M 862.6070881955735 389.1104874265494 L 871 382 L 860.0374412723346 381.0931890260442" stroke-miterlimit="10"/></g></g></svg>