<svg version="1.1" xmlns="http://www.w3.org/2000/svg" xmlns:xlink="http://www.w3.org/1999/xlink" width="826.8544921875" height="502"><defs/><g><text fill="#eeeeee" stroke="none" font-family="Arial" font-size="24px" font-style="normal" font-weight="normal" text-decoration="none" x="0" y="0">UNREGISTERED</text><text fill="#eeeeee" stroke="none" font-family="Arial" font-size="24px" font-style="normal" font-weight="normal" text-decoration="none" x="0" y="30">UNREGISTERED</text><text fill="#eeeeee" stroke="none" font-family="Arial" font-size="24px" font-style="normal" font-weight="normal" text-decoration="none" x="0" y="60">UNREGISTERED</text><text fill="#eeeeee" stroke="none" font-family="Arial" font-size="24px" font-style="normal" font-weight="normal" text-decoration="none" x="0" y="90">UNREGISTERED</text><text fill="#eeeeee" stroke="none" font-family="Arial" font-size="24px" font-style="normal" font-weight="normal" text-decoration="none" x="0" y="120">UNREGISTERED</text><text fill="#eeeeee" stroke="none" font-family="Arial" font-size="24px" font-style="normal" font-weight="normal" text-decoration="none" x="0" y="150">UNREGISTERED</text><text fill="#eeeeee" stroke="none" font-family="Arial" font-size="24px" font-style="normal" font-weight="normal" text-decoration="none" x="0" y="180">UNREGISTERED</text><text fill="#eeeeee" stroke="none" font-family="Arial" font-size="24px" font-style="normal" font-weight="normal" text-decoration="none" x="0" y="210">UNREGISTERED</text><text fill="#eeeeee" stroke="none" font-family="Arial" font-size="24px" font-style="normal" font-weight="normal" text-decoration="none" x="0" y="240">UNREGISTERED</text><text fill="#eeeeee" stroke="none" font-family="Arial" font-size="24px" font-style="normal" font-weight="normal" text-decoration="none" x="0" y="270">UNREGISTERED</text><text fill="#eeeeee" stroke="none" font-family="Arial" font-size="24px" font-style="normal" font-weight="normal" text-decoration="none" x="0" y="300">UNREGISTERED</text><text fill="#eeeeee" stroke="none" font-family="Arial" font-size="24px" font-style="normal" font-weight="normal" text-decoration="none" x="0" y="330">UNREGISTERED</text><text fill="#eeeeee" stroke="none" font-family="Arial" font-size="24px" font-style="normal" font-weight="normal" text-decoration="none" x="0" y="360">UNREGISTERED</text><text fill="#eeeeee" stroke="none" font-family="Arial" font-size="24px" font-style="normal" font-weight="normal" text-decoration="none" x="0" y="390">UNREGISTERED</text><text fill="#eeeeee" stroke="none" font-family="Arial" font-size="24px" font-style="normal" font-weight="normal" text-decoration="none" x="0" y="420">UNREGISTERED</text><text fill="#eeeeee" stroke="none" font-family="Arial" font-size="24px" font-style="normal" font-weight="normal" text-decoration="none" x="0" y="450">UNREGISTERED</text><text fill="#eeeeee" stroke="none" font-family="Arial" font-size="24px" font-style="normal" font-weight="normal" text-decoration="none" x="0" y="480">UNREGISTERED</text><text fill="#eeeeee" stroke="none" font-family="Arial" font-size="24px" font-style="normal" font-weight="normal" text-decoration="none" x="200" y="0">UNREGISTERED</text><text fill="#eeeeee" stroke="none" font-family="Arial" font-size="24px" font-style="normal" font-weight="normal" text-decoration="none" x="200" y="30">UNREGISTERED</text><text fill="#eeeeee" stroke="none" font-family="Arial" font-size="24px" font-style="normal" font-weight="normal" text-decoration="none" x="200" y="60">UNREGISTERED</text><text fill="#eeeeee" stroke="none" font-family="Arial" font-size="24px" font-style="normal" font-weight="normal" text-decoration="none" x="200" y="90">UNREGISTERED</text><text fill="#eeeeee" stroke="none" font-family="Arial" font-size="24px" font-style="normal" font-weight="normal" text-decoration="none" x="200" y="120">UNREGISTERED</text><text fill="#eeeeee" stroke="none" font-family="Arial" font-size="24px" font-style="normal" font-weight="normal" text-decoration="none" x="200" y="150">UNREGISTERED</text><text fill="#eeeeee" stroke="none" font-family="Arial" font-size="24px" font-style="normal" font-weight="normal" text-decoration="none" x="200" y="180">UNREGISTERED</text><text fill="#eeeeee" stroke="none" font-family="Arial" font-size="24px" font-style="normal" font-weight="normal" text-decoration="none" x="200" y="210">UNREGISTERED</text><text fill="#eeeeee" stroke="none" font-family="Arial" font-size="24px" font-style="normal" font-weight="normal" text-decoration="none" x="200" y="240">UNREGISTERED</text><text fill="#eeeeee" stroke="none" font-family="Arial" font-size="24px" font-style="normal" font-weight="normal" text-decoration="none" x="200" y="270">UNREGISTERED</text><text fill="#eeeeee" stroke="none" font-family="Arial" font-size="24px" font-style="normal" font-weight="normal" text-decoration="none" x="200" y="300">UNREGISTERED</text><text fill="#eeeeee" stroke="none" font-family="Arial" font-size="24px" font-style="normal" font-weight="normal" text-decoration="none" x="200" y="330">UNREGISTERED</text><text fill="#eeeeee" stroke="none" font-family="Arial" font-size="24px" font-style="normal" font-weight="normal" text-decoration="none" x="200" y="360">UNREGISTERED</text><text fill="#eeeeee" stroke="none" font-family="Arial" font-size="24px" font-style="normal" font-weight="normal" text-decoration="none" x="200" y="390">UNREGISTERED</text><text fill="#eeeeee" stroke="none" font-family="Arial" font-size="24px" font-style="normal" font-weight="normal" text-decoration="none" x="200" y="420">UNREGISTERED</text><text fill="#eeeeee" stroke="none" font-family="Arial" font-size="24px" font-style="normal" font-weight="normal" text-decoration="none" x="200" y="450">UNREGISTERED</text><text fill="#eeeeee" stroke="none" font-family="Arial" font-size="24px" font-style="normal" font-weight="normal" text-decoration="none" x="200" y="480">UNREGISTERED</text><text fill="#eeeeee" stroke="none" font-family="Arial" font-size="24px" font-style="normal" font-weight="normal" text-decoration="none" x="400" y="0">UNREGISTERED</text><text fill="#eeeeee" stroke="none" font-family="Arial" font-size="24px" font-style="normal" font-weight="normal" text-decoration="none" x="400" y="30">UNREGISTERED</text><text fill="#eeeeee" stroke="none" font-family="Arial" font-size="24px" font-style="normal" font-weight="normal" text-decoration="none" x="400" y="60">UNREGISTERED</text><text fill="#eeeeee" stroke="none" font-family="Arial" font-size="24px" font-style="normal" font-weight="normal" text-decoration="none" x="400" y="90">UNREGISTERED</text><text fill="#eeeeee" stroke="none" font-family="Arial" font-size="24px" font-style="normal" font-weight="normal" text-decoration="none" x="400" y="120">UNREGISTERED</text><text fill="#eeeeee" stroke="none" font-family="Arial" font-size="24px" font-style="normal" font-weight="normal" text-decoration="none" x="400" y="150">UNREGISTERED</text><text fill="#eeeeee" stroke="none" font-family="Arial" font-size="24px" font-style="normal" font-weight="normal" text-decoration="none" x="400" y="180">UNREGISTERED</text><text fill="#eeeeee" stroke="none" font-family="Arial" font-size="24px" font-style="normal" font-weight="normal" text-decoration="none" x="400" y="210">UNREGISTERED</text><text fill="#eeeeee" stroke="none" font-family="Arial" font-size="24px" font-style="normal" font-weight="normal" text-decoration="none" x="400" y="240">UNREGISTERED</text><text fill="#eeeeee" stroke="none" font-family="Arial" font-size="24px" font-style="normal" font-weight="normal" text-decoration="none" x="400" y="270">UNREGISTERED</text><text fill="#eeeeee" stroke="none" font-family="Arial" font-size="24px" font-style="normal" font-weight="normal" text-decoration="none" x="400" y="300">UNREGISTERED</text><text fill="#eeeeee" stroke="none" font-family="Arial" font-size="24px" font-style="normal" font-weight="normal" text-decoration="none" x="400" y="330">UNREGISTERED</text><text fill="#eeeeee" stroke="none" font-family="Arial" font-size="24px" font-style="normal" font-weight="normal" text-decoration="none" x="400" y="360">UNREGISTERED</text><text fill="#eeeeee" stroke="none" font-family="Arial" font-size="24px" font-style="normal" font-weight="normal" text-decoration="none" x="400" y="390">UNREGISTERED</text><text fill="#eeeeee" stroke="none" font-family="Arial" font-size="24px" font-style="normal" font-weight="normal" text-decoration="none" x="400" y="420">UNREGISTERED</text><text fill="#eeeeee" stroke="none" font-family="Arial" font-size="24px" font-style="normal" font-weight="normal" text-decoration="none" x="400" y="450">UNREGISTERED</text><text fill="#eeeeee" stroke="none" font-family="Arial" font-size="24px" font-style="normal" font-weight="normal" text-decoration="none" x="400" y="480">UNREGISTERED</text><text fill="#eeeeee" stroke="none" font-family="Arial" font-size="24px" font-style="normal" font-weight="normal" text-decoration="none" x="600" y="0">UNREGISTERED</text><text fill="#eeeeee" stroke="none" font-family="Arial" font-size="24px" font-style="normal" font-weight="normal" text-decoration="none" x="600" y="30">UNREGISTERED</text><text fill="#eeeeee" stroke="none" font-family="Arial" font-size="24px" font-style="normal" font-weight="normal" text-decoration="none" x="600" y="60">UNREGISTERED</text><text fill="#eeeeee" stroke="none" font-family="Arial" font-size="24px" font-style="normal" font-weight="normal" text-decoration="none" x="600" y="90">UNREGISTERED</text><text fill="#eeeeee" stroke="none" font-family="Arial" font-size="24px" font-style="normal" font-weight="normal" text-decoration="none" x="600" y="120">UNREGISTERED</text><text fill="#eeeeee" stroke="none" font-family="Arial" font-size="24px" font-style="normal" font-weight="normal" text-decoration="none" x="600" y="150">UNREGISTERED</text><text fill="#eeeeee" stroke="none" font-family="Arial" font-size="24px" font-style="normal" font-weight="normal" text-decoration="none" x="600" y="180">UNREGISTERED</text><text fill="#eeeeee" stroke="none" font-family="Arial" font-size="24px" font-style="normal" font-weight="normal" text-decoration="none" x="600" y="210">UNREGISTERED</text><text fill="#eeeeee" stroke="none" font-family="Arial" font-size="24px" font-style="normal" font-weight="normal" text-decoration="none" x="600" y="240">UNREGISTERED</text><text fill="#eeeeee" stroke="none" font-family="Arial" font-size="24px" font-style="normal" font-weight="normal" text-decoration="none" x="600" y="270">UNREGISTERED</text><text fill="#eeeeee" stroke="none" font-family="Arial" font-size="24px" font-style="normal" font-weight="normal" text-decoration="none" x="600" y="300">UNREGISTERED</text><text fill="#eeeeee" stroke="none" font-family="Arial" font-size="24px" font-style="normal" font-weight="normal" text-decoration="none" x="600" y="330">UNREGISTERED</text><text fill="#eeeeee" stroke="none" font-family="Arial" font-size="24px" font-style="normal" font-weight="normal" text-decoration="none" x="600" y="360">UNREGISTERED</text><text fill="#eeeeee" stroke="none" font-family="Arial" font-size="24px" font-style="normal" font-weight="normal" text-decoration="none" x="600" y="390">UNREGISTERED</text><text fill="#eeeeee" stroke="none" font-family="Arial" font-size="24px" font-style="normal" font-weight="normal" text-decoration="none" x="600" y="420">UNREGISTERED</text><text fill="#eeeeee" stroke="none" font-family="Arial" font-size="24px" font-style="normal" font-weight="normal" text-decoration="none" x="600" y="450">UNREGISTERED</text><text fill="#eeeeee" stroke="none" font-family="Arial" font-size="24px" font-style="normal" font-weight="normal" text-decoration="none" x="600" y="480">UNREGISTERED</text><text fill="#eeeeee" stroke="none" font-family="Arial" font-size="24px" font-style="normal" font-weight="normal" text-decoration="none" x="800" y="0">UNREGISTERED</text><text fill="#eeeeee" stroke="none" font-family="Arial" font-size="24px" font-style="normal" font-weight="normal" text-decoration="none" x="800" y="30">UNREGISTERED</text><text fill="#eeeeee" stroke="none" font-family="Arial" font-size="24px" font-style="normal" font-weight="normal" text-decoration="none" x="800" y="60">UNREGISTERED</text><text fill="#eeeeee" stroke="none" font-family="Arial" font-size="24px" font-style="normal" font-weight="normal" text-decoration="none" x="800" y="90">UNREGISTERED</text><text fill="#eeeeee" stroke="none" font-family="Arial" font-size="24px" font-style="normal" font-weight="normal" text-decoration="none" x="800" y="120">UNREGISTERED</text><text fill="#eeeeee" stroke="none" font-family="Arial" font-size="24px" font-style="normal" font-weight="normal" text-decoration="none" x="800" y="150">UNREGISTERED</text><text fill="#eeeeee" stroke="none" font-family="Arial" font-size="24px" font-style="normal" font-weight="normal" text-decoration="none" x="800" y="180">UNREGISTERED</text><text fill="#eeeeee" stroke="none" font-family="Arial" font-size="24px" font-style="normal" font-weight="normal" text-decoration="none" x="800" y="210">UNREGISTERED</text><text fill="#eeeeee" stroke="none" font-family="Arial" font-size="24px" font-style="normal" font-weight="normal" text-decoration="none" x="800" y="240">UNREGISTERED</text><text fill="#eeeeee" stroke="none" font-family="Arial" font-size="24px" font-style="normal" font-weight="normal" text-decoration="none" x="800" y="270">UNREGISTERED</text><text fill="#eeeeee" stroke="none" font-family="Arial" font-size="24px" font-style="normal" font-weight="normal" text-decoration="none" x="800" y="300">UNREGISTERED</text><text fill="#eeeeee" stroke="none" font-family="Arial" font-size="24px" font-style="normal" font-weight="normal" text-decoration="none" x="800" y="330">UNREGISTERED</text><text fill="#eeeeee" stroke="none" font-family="Arial" font-size="24px" font-style="normal" font-weight="normal" text-decoration="none" x="800" y="360">UNREGISTERED</text><text fill="#eeeeee" stroke="none" font-family="Arial" font-size="24px" font-style="normal" font-weight="normal" text-decoration="none" x="800" y="390">UNREGISTERED</text><text fill="#eeeeee" stroke="none" font-family="Arial" font-size="24px" font-style="normal" font-weight="normal" text-decoration="none" x="800" y="420">UNREGISTERED</text><text fill="#eeeeee" stroke="none" font-family="Arial" font-size="24px" font-style="normal" font-weight="normal" text-decoration="none" x="800" y="450">UNREGISTERED</text><text fill="#eeeeee" stroke="none" font-family="Arial" font-size="24px" font-style="normal" font-weight="normal" text-decoration="none" x="800" y="480">UNREGISTERED</text><g transform="translate(-46,-6) scale(1,1)"><rect fill="#ffffff" stroke="none" x="56" y="16" width="536" height="48"/></g><g transform="translate(-46,-6) scale(1,1)"><path fill="none" stroke="#000000" d="M 56 16 L 592 16 L 592 64 L 56 64 L 56 16 Z Z" stroke-miterlimit="10"/></g><g transform="translate(-46,-6) scale(1,1)"><g><path fill="none" stroke="none"/><text fill="#000000" stroke="none" font-family="Arial" font-size="36px" font-style="normal" font-weight="normal" text-decoration="none" x="69" y="57"> Cadastro chefe - César </text></g></g><g transform="translate(-46,-6) scale(1,1)"><path fill="#ffffff" stroke="none" d="M 231.58024875710228 225.68 C 231.58024875710228 220.886167936 235.46609108204774 217 240.259521484375 217 C 245.05295188670226 217 248.93879421164772 220.886167936 248.93879421164772 225.68 C 248.93879421164772 230.47383206400002 245.05295188670226 234.36 240.259521484375 234.36 C 235.46609108204774 234.36 231.58024875710228 230.47383206400002 231.58024875710228 225.68 Z"/></g><g transform="translate(-46,-6) scale(1,1)"><path fill="none" stroke="#000000" d="M 231.58024875710228 225.68 C 231.58024875710228 220.886167936 235.46609108204774 217 240.259521484375 217 C 245.05295188670226 217 248.93879421164772 220.886167936 248.93879421164772 225.68 C 248.93879421164772 230.47383206400002 245.05295188670226 234.36 240.259521484375 234.36 C 235.46609108204774 234.36 231.58024875710228 230.47383206400002 231.58024875710228 225.68 Z" stroke-miterlimit="10"/></g><g transform="translate(-46,-6) scale(1,1)"><path fill="none" stroke="#000000" d="M 240.259521484375 234.36 L 240.259521484375 251.64" stroke-miterlimit="10"/></g><g transform="translate(-46,-6) scale(1,1)"><path fill="none" stroke="#000000" d="M 231.06970330255683 240.84 L 249.44933966619317 240.84" stroke-miterlimit="10"/></g><g transform="translate(-46,-6) scale(1,1)"><path fill="none" stroke="#000000" d="M 240.259521484375 251.64 L 227.49588512073865 269" stroke-miterlimit="10"/></g><g transform="translate(-46,-6) scale(1,1)"><path fill="none" stroke="#000000" d="M 240.259521484375 251.64 L 253.02315784801135 269" stroke-miterlimit="10"/></g><g transform="translate(-46,-6) scale(1,1)"><g><path fill="none" stroke="none"/><text fill="#000000" stroke="none" font-family="Arial" font-size="13px" font-style="normal" font-weight="bold" text-decoration="none" x="206.658203125" y="289.5">Chefe setor</text></g></g><g transform="translate(-46,-6) scale(1,1)"><path fill="#ffffff" stroke="none" d="M 798.7479733664773 417.68 C 798.7479733664773 412.886167936 802.6338156914227 409 807.42724609375 409 C 812.2206764960773 409 816.1065188210227 412.886167936 816.1065188210227 417.68 C 816.1065188210227 422.473832064 812.2206764960773 426.36 807.42724609375 426.36 C 802.6338156914227 426.36 798.7479733664773 422.473832064 798.7479733664773 417.68 Z"/></g><g transform="translate(-46,-6) scale(1,1)"><path fill="none" stroke="#000000" d="M 798.7479733664773 417.68 C 798.7479733664773 412.886167936 802.6338156914227 409 807.42724609375 409 C 812.2206764960773 409 816.1065188210227 412.886167936 816.1065188210227 417.68 C 816.1065188210227 422.473832064 812.2206764960773 426.36 807.42724609375 426.36 C 802.6338156914227 426.36 798.7479733664773 422.473832064 798.7479733664773 417.68 Z" stroke-miterlimit="10"/></g><g transform="translate(-46,-6) scale(1,1)"><path fill="none" stroke="#000000" d="M 807.42724609375 426.36 L 807.42724609375 443.64" stroke-miterlimit="10"/></g><g transform="translate(-46,-6) scale(1,1)"><path fill="none" stroke="#000000" d="M 798.2374279119318 432.84 L 816.6170642755682 432.84" stroke-miterlimit="10"/></g><g transform="translate(-46,-6) scale(1,1)"><path fill="none" stroke="#000000" d="M 807.42724609375 443.64 L 794.6636097301136 461" stroke-miterlimit="10"/></g><g transform="translate(-46,-6) scale(1,1)"><path fill="none" stroke="#000000" d="M 807.42724609375 443.64 L 820.1908824573864 461" stroke-miterlimit="10"/></g><g transform="translate(-46,-6) scale(1,1)"><g><path fill="none" stroke="none"/><text fill="#000000" stroke="none" font-family="Arial" font-size="13px" font-style="normal" font-weight="bold" text-decoration="none" x="759.365966796875" y="481.5">Banco de Dados</text></g></g><g transform="translate(-46,-6) scale(1,1)"><path fill="#C0C0C0" stroke="none" d="M 479 192 C 479 182.6111584 513.2502128 175 555.5 175 C 597.7497872 175 632 182.6111584 632 192 C 632 201.3888416 597.7497872 209 555.5 209 C 513.2502128 209 479 201.3888416 479 192 Z" opacity="0.2"/></g><g transform="translate(-46,-6) scale(1,1)"><path fill="#ffffff" stroke="none" d="M 472 185 C 472 175.6111584 506.2502128 168 548.5 168 C 590.7497872 168 625 175.6111584 625 185 C 625 194.3888416 590.7497872 202 548.5 202 C 506.2502128 202 472 194.3888416 472 185 Z"/></g><g transform="translate(-46,-6) scale(1,1)"><path fill="none" stroke="#000000" d="M 472 185 C 472 175.6111584 506.2502128 168 548.5 168 C 590.7497872 168 625 175.6111584 625 185 C 625 194.3888416 590.7497872 202 548.5 202 C 506.2502128 202 472 194.3888416 472 185 Z" stroke-miterlimit="10"/></g><g transform="translate(-46,-6) scale(1,1)"><g><path fill="none" stroke="none"/><text fill="#000000" stroke="none" font-family="Arial" font-size="13px" font-style="normal" font-weight="bold" text-decoration="none" x="502.96826171875" y="192">Submete dados</text></g></g><g transform="translate(-46,-6) scale(1,1)"><path fill="none" stroke="#000000" d="M 282 246 L 471 203" stroke-miterlimit="10"/></g><g transform="translate(-46,-6) scale(1,1)"><path fill="#C0C0C0" stroke="none" d="M 343 488 C 343 478.6111584 405.0085552 471 481.5 471 C 557.9914448 471 620 478.6111584 620 488 C 620 497.3888416 557.9914448 505 481.5 505 C 405.0085552 505 343 497.3888416 343 488 Z" opacity="0.2"/></g><g transform="translate(-46,-6) scale(1,1)"><path fill="#ffffff" stroke="none" d="M 336 481 C 336 471.6111584 398.0085552 464 474.5 464 C 550.9914448 464 613 471.6111584 613 481 C 613 490.3888416 550.9914448 498 474.5 498 C 398.0085552 498 336 490.3888416 336 481 Z"/></g><g transform="translate(-46,-6) scale(1,1)"><path fill="none" stroke="#000000" d="M 336 481 C 336 471.6111584 398.0085552 464 474.5 464 C 550.9914448 464 613 471.6111584 613 481 C 613 490.3888416 550.9914448 498 474.5 498 C 398.0085552 498 336 490.3888416 336 481 Z" stroke-miterlimit="10"/></g><g transform="translate(-46,-6) scale(1,1)"><g><path fill="none" stroke="none"/><text fill="#000000" stroke="none" font-family="Arial" font-size="13px" font-style="normal" font-weight="bold" text-decoration="none" x="386.69921875" y="488">Concede permissões de chefe</text></g></g><g transform="translate(-46,-6) scale(1,1)"><path fill="#C0C0C0" stroke="none" d="M 615 400 C 615 390.6111584 647.6832096 383 688 383 C 728.3167904 383 761 390.6111584 761 400 C 761 409.3888416 728.3167904 417 688 417 C 647.6832096 417 615 409.3888416 615 400 Z" opacity="0.2"/></g><g transform="translate(-46,-6) scale(1,1)"><path fill="#ffffff" stroke="none" d="M 608 393 C 608 383.6111584 640.6832096 376 681 376 C 721.3167904 376 754 383.6111584 754 393 C 754 402.3888416 721.3167904 410 681 410 C 640.6832096 410 608 402.3888416 608 393 Z"/></g><g transform="translate(-46,-6) scale(1,1)"><path fill="none" stroke="#000000" d="M 608 393 C 608 383.6111584 640.6832096 376 681 376 C 721.3167904 376 754 383.6111584 754 393 C 754 402.3888416 721.3167904 410 681 410 C 640.6832096 410 608 402.3888416 608 393 Z" stroke-miterlimit="10"/></g><g transform="translate(-46,-6) scale(1,1)"><g><path fill="none" stroke="none"/><text fill="#000000" stroke="none" font-family="Arial" font-size="13px" font-style="normal" font-weight="bold" text-decoration="none" x="636.5537109375" y="400">Salva os dados</text></g></g><g transform="translate(-46,-6) scale(1,1)"><path fill="#C0C0C0" stroke="none" d="M 631 264 C 631 254.6111584 658.9822 247 693.5 247 C 728.0178 247 756 254.6111584 756 264 C 756 273.3888416 728.0178 281 693.5 281 C 658.9822 281 631 273.3888416 631 264 Z" opacity="0.2"/></g><g transform="translate(-46,-6) scale(1,1)"><path fill="#ffffff" stroke="none" d="M 624 257 C 624 247.6111584 651.9822 240 686.5 240 C 721.0178 240 749 247.6111584 749 257 C 749 266.3888416 721.0178 274 686.5 274 C 651.9822 274 624 266.3888416 624 257 Z"/></g><g transform="translate(-46,-6) scale(1,1)"><path fill="none" stroke="#000000" d="M 624 257 C 624 247.6111584 651.9822 240 686.5 240 C 721.0178 240 749 247.6111584 749 257 C 749 266.3888416 721.0178 274 686.5 274 C 651.9822 274 624 266.3888416 624 257 Z" stroke-miterlimit="10"/></g><g transform="translate(-46,-6) scale(1,1)"><g><path fill="none" stroke="none"/><text fill="#000000" stroke="none" font-family="Arial" font-size="13px" font-style="normal" font-weight="bold" text-decoration="none" x="649.39794921875" y="264">Valida dados</text></g></g><g transform="translate(-46,-6) scale(1,1)"><path fill="none" stroke="#000000" d="M 583 203 L 652 239" stroke-miterlimit="10" stroke-dasharray="3"/></g><g transform="translate(-46,-6) scale(1,1)"><path fill="none" stroke="#000000" d="M 641.0427466562116 238.0311867259171 L 652 239 L 644.9371062932358 230.56699742162073" stroke-miterlimit="10"/></g><g transform="translate(-46,-6) scale(1,1)"><g><path fill="none" stroke="none"/><text fill="#000000" stroke="none" font-family="Arial" font-size="13px" font-style="normal" font-weight="normal" text-decoration="none" x="602.5" y="200.5">«include»</text></g></g><g transform="translate(-46,-6) scale(1,1)"><path fill="#C0C0C0" stroke="none" d="M 287 128 C 287 118.6111584 348.7846976 111 425 111 C 501.2153024 111 563 118.6111584 563 128 C 563 137.3888416 501.2153024 145 425 145 C 348.7846976 145 287 137.3888416 287 128 Z" opacity="0.2"/></g><g transform="translate(-46,-6) scale(1,1)"><path fill="#ffffff" stroke="none" d="M 280 121 C 280 111.6111584 341.7846976 104 418 104 C 494.2153024 104 556 111.6111584 556 121 C 556 130.3888416 494.2153024 138 418 138 C 341.7846976 138 280 130.3888416 280 121 Z"/></g><g transform="translate(-46,-6) scale(1,1)"><path fill="none" stroke="#000000" d="M 280 121 C 280 111.6111584 341.7846976 104 418 104 C 494.2153024 104 556 111.6111584 556 121 C 556 130.3888416 494.2153024 138 418 138 C 341.7846976 138 280 130.3888416 280 121 Z" stroke-miterlimit="10"/></g><g transform="translate(-46,-6) scale(1,1)"><g><path fill="none" stroke="none"/><text fill="#000000" stroke="none" font-family="Arial" font-size="13px" font-style="normal" font-weight="bold" text-decoration="none" x="379.339599609375" y="128">Insere Dados</text></g></g><g transform="translate(-46,-6) scale(1,1)"><path fill="none" stroke="#000000" d="M 282 224 L 394 139" stroke-miterlimit="10"/></g><g transform="translate(-46,-6) scale(1,1)"><path fill="#C0C0C0" stroke="none" d="M 439 288 C 439 278.6111584 477.5035072 271 525 271 C 572.4964927999999 271 611 278.6111584 611 288 C 611 297.3888416 572.4964927999999 305 525 305 C 477.5035072 305 439 297.3888416 439 288 Z" opacity="0.2"/></g><g transform="translate(-46,-6) scale(1,1)"><path fill="#ffffff" stroke="none" d="M 432 281 C 432 271.6111584 470.5035072 264 518 264 C 565.4964927999999 264 604 271.6111584 604 281 C 604 290.3888416 565.4964927999999 298 518 298 C 470.5035072 298 432 290.3888416 432 281 Z"/></g><g transform="translate(-46,-6) scale(1,1)"><path fill="none" stroke="#000000" d="M 432 281 C 432 271.6111584 470.5035072 264 518 264 C 565.4964927999999 264 604 271.6111584 604 281 C 604 290.3888416 565.4964927999999 298 518 298 C 470.5035072 298 432 290.3888416 432 281 Z" stroke-miterlimit="10"/></g><g transform="translate(-46,-6) scale(1,1)"><g><path fill="none" stroke="none"/><text fill="#000000" stroke="none" font-family="Arial" font-size="13px" font-style="normal" font-weight="bold" text-decoration="none" x="465.974609375" y="288">Verifica existência</text></g></g><g transform="translate(-46,-6) scale(1,1)"><path fill="none" stroke="#000000" d="M 542 203 L 524 263" stroke-miterlimit="10" stroke-dasharray="3"/></g><g transform="translate(-46,-6) scale(1,1)"><path fill="none" stroke="#000000" d="M 522.8882363772193 252.05632686676628 L 524 263 L 530.9522098868538 254.47551891965665" stroke-miterlimit="10"/></g><g transform="translate(-46,-6) scale(1,1)"><g><path fill="none" stroke="none"/><text fill="#000000" stroke="none" font-family="Arial" font-size="13px" font-style="normal" font-weight="normal" text-decoration="none" x="533.5" y="247.5">«include»</text></g></g><g transform="translate(-46,-6) scale(1,1)"><path fill="#C0C0C0" stroke="none" d="M 359 376 C 359 366.6111584 399.5182256 359 449.5 359 C 499.4817744 359 540 366.6111584 540 376 C 540 385.3888416 499.4817744 393 449.5 393 C 399.5182256 393 359 385.3888416 359 376 Z" opacity="0.2"/></g><g transform="translate(-46,-6) scale(1,1)"><path fill="#ffffff" stroke="none" d="M 352 369 C 352 359.6111584 392.5182256 352 442.5 352 C 492.4817744 352 533 359.6111584 533 369 C 533 378.3888416 492.4817744 386 442.5 386 C 392.5182256 386 352 378.3888416 352 369 Z"/></g><g transform="translate(-46,-6) scale(1,1)"><path fill="none" stroke="#000000" d="M 352 369 C 352 359.6111584 392.5182256 352 442.5 352 C 492.4817744 352 533 359.6111584 533 369 C 533 378.3888416 492.4817744 386 442.5 386 C 392.5182256 386 352 378.3888416 352 369 Z" stroke-miterlimit="10"/></g><g transform="translate(-46,-6) scale(1,1)"><g><path fill="none" stroke="none"/><text fill="#000000" stroke="none" font-family="Arial" font-size="13px" font-style="normal" font-weight="bold" text-decoration="none" x="387.589599609375" y="376">Informar existência</text></g></g><g transform="translate(-46,-6) scale(1,1)"><path fill="none" stroke="#000000" d="M 282 278 L 410 351" stroke-miterlimit="10"/></g><g transform="translate(-46,-6) scale(1,1)"><path fill="none" stroke="#000000" d="M 502 299 L 458 351" stroke-miterlimit="10"/></g><g transform="translate(-46,-6) scale(1,1)"><g><path fill="none" stroke="none"/><text fill="#000000" stroke="none" font-family="Arial" font-size="13px" font-style="normal" font-weight="normal" text-decoration="none" x="453.5" y="340.5">+Caso exista</text></g></g><g transform="translate(-46,-6) scale(1,1)"><path fill="none" stroke="#000000" d="M 544 299 L 655 375" stroke-miterlimit="10"/></g><g transform="translate(-46,-6) scale(1,1)"><g><path fill="none" stroke="none"/><text fill="#000000" stroke="none" font-family="Arial" font-size="13px" font-style="normal" font-weight="normal" text-decoration="none" x="538.5" y="330.5">+Caso ainda não exista</text></g></g><g transform="translate(-46,-6) scale(1,1)"><path fill="none" stroke="#000000" d="M 639 411 L 516 463" stroke-miterlimit="10" stroke-dasharray="3"/></g><g transform="translate(-46,-6) scale(1,1)"><path fill="none" stroke="#000000" d="M 523.721372672681 455.1654352992923 L 516 463 L 526.9997088044364 462.91996114940605" stroke-miterlimit="10"/></g><g transform="translate(-46,-6) scale(1,1)"><g><path fill="none" stroke="none"/><text fill="#000000" stroke="none" font-family="Arial" font-size="13px" font-style="normal" font-weight="normal" text-decoration="none" x="560.5" y="470.5">«include»</text></g></g><g transform="translate(-46,-6) scale(1,1)"><path fill="none" stroke="#000000" d="M 723 411 L 751 423" stroke-miterlimit="10"/></g><g transform="translate(-46,-6) scale(1,1)"><path fill="none" stroke="#000000" d="M 740.0008176311189 422.86588357261144 L 751 423 L 743.3172381947317 415.1275689241817" stroke-miterlimit="10"/></g></g></svg>